<svg xmlns="http://www.w3.org/2000/svg" xml:space="preserve" style="enable-background:new 0 0 144 41" viewBox="0 0 144 41"><style>:root { --primary : #ffffff; }</style><title>Network Logo</title><desc>Network Logo for Spain</desc><path d="M97.5 34.9c-.4.5-1 .7-1.8.7-.5 0-.9-.1-1.2-.3-.3-.2-.4-.6-.4-1 0-.6.3-1 .8-1.2s1.3-.4 2.4-.4h.9c-.1 1.1-.3 1.8-.7 2.2m-4.4-4.7c.4-.2.8-.4 1.3-.6.5-.1 1-.2 1.4-.2 1.5 0 2.2.7 2.2 2.2h-1.3c-1.5 0-2.7.3-3.5.8-.8.5-1.2 1.2-1.2 2.2 0 .9.3 1.5.9 2s1.3.7 2.3.7c.7 0 1.4-.1 1.9-.4.5-.3.9-.7 1.2-1.2v1.5h1.8c0-.3-.1-.6-.1-1v-4.5c0-.5-.1-1-.2-1.5-.1-.4-.4-.8-.7-1.1-.3-.3-.7-.6-1.2-.7-.5-.2-1.1-.3-1.8-.3-.5 0-1.1.1-1.6.2-.6.1-1.1.3-1.5.5l.1 1.4zm-4.9-5.8c-.1.6-.3.8-.7.8-.1 0-.2 0-.4-.1-.2 0-.4-.1-.7-.3-.3-.1-.6-.2-.8-.3-.2-.1-.4-.1-.7-.1-.5 0-.9.2-1.2.5-.3.4-.5.9-.6 1.5h.9c.1-.3.2-.5.3-.6.1-.1.3-.2.5-.2.1 0 .3 0 .5.1s.4.2.8.3c.6.2 1.1.3 1.4.3.5 0 .9-.2 1.2-.5.3-.4.5-.9.5-1.5l-1 .1zm-4.5 5.1v-.8c0-.3 0-.5-.1-.7h-2c0 .4.1.9.1 1.3V37h2v-4.2c0-.5 0-.9.1-1.3s.2-.7.3-.9c.2-.4.5-.7.9-.9.4-.2.8-.3 1.2-.3.4 0 .8.1 1 .3.2.2.4.4.6.7.1.3.2.6.2 1V37h2v-5.2c0-.6-.1-1.1-.2-1.6s-.3-.9-.6-1.3-.6-.6-1-.8c-.4-.2-1-.3-1.6-.3-.7 0-1.3.1-1.8.4-.3.3-.7.8-1.1 1.3zm-7 5.4c-.4.5-1 .7-1.8.7-.5 0-.9-.1-1.2-.3-.3-.2-.4-.6-.4-1 0-.6.3-1 .8-1.2s1.3-.4 2.4-.4h.9c-.1 1.1-.3 1.8-.7 2.2m-4.4-4.7c.4-.2.8-.4 1.3-.6.5-.1 1-.2 1.4-.2 1.5 0 2.2.7 2.2 2.2h-1.3c-1.5 0-2.7.3-3.5.8-.8.5-1.2 1.2-1.2 2.2 0 .9.3 1.5.9 2s1.3.7 2.3.7c.8 0 1.4-.1 1.9-.4.5-.3.9-.7 1.2-1.2v1.5h1.8c0-.3-.1-.6-.1-1v-4.5c0-.5-.1-1-.2-1.5-.1-.4-.4-.8-.7-1.1-.3-.3-.7-.6-1.2-.7-.5-.2-1.1-.3-1.8-.3-.5 0-1.1.1-1.6.2-.6.1-1.1.3-1.5.5l.1 1.4zm-5.3 0c.4.6.6 1.3.6 2.2 0 .4-.1.9-.2 1.2-.1.4-.3.7-.5 1s-.4.5-.7.7c-.3.2-.6.2-1 .2s-.7-.1-1-.2c-.3-.2-.6-.4-.8-.7s-.4-.6-.5-1-.2-.8-.2-1.2.1-.9.2-1.2c.1-.4.3-.7.5-1s.5-.5.8-.6c.3-.2.6-.2 1-.2.8 0 1.4.3 1.8.8m-6.2 10.5h2v-5.2c.3.5.7.9 1.2 1.2s1.1.5 1.8.5c.6 0 1.1-.1 1.6-.4.5-.2.9-.6 1.2-1 .3-.4.6-.9.8-1.5.2-.6.3-1.2.3-2 0-.7-.1-1.3-.3-1.9-.2-.6-.4-1-.8-1.5-.3-.4-.8-.7-1.2-.9-.5-.2-1-.3-1.6-.3-.7 0-1.3.1-1.8.4s-.9.7-1.3 1.2v-.8c0-.3 0-.5-.1-.7h-1.9c0 .4.1.8.1 1.3v11.6zm-8.1-4c.8.3 1.7.5 2.6.5.5 0 1-.1 1.4-.2.4-.1.8-.3 1.1-.5s.6-.5.7-.9.3-.7.3-1.2c0-.7-.2-1.2-.6-1.6-.4-.4-1-.8-1.9-1.1-.3-.1-.6-.2-.8-.3-.2-.1-.4-.2-.5-.3l-.3-.3c-.1-.1-.1-.3-.1-.4 0-.3.1-.6.4-.8.3-.2.6-.3 1-.3.3 0 .7 0 1 .1s.7.2 1 .4l.2-1.6c-.7-.3-1.4-.4-2.3-.4-1 0-1.8.2-2.5.7-.6.5-.9 1.1-.9 2 0 .3 0 .6.1.8.1.2.2.5.4.7s.4.4.7.6c.3.2.6.3 1.1.5.4.1.7.3.9.4l.6.3c.1.1.2.2.3.4.1.1.1.3.1.4 0 .4-.2.6-.5.8s-.7.3-1.1.3c-.4 0-.8 0-1.2-.1s-.8-.2-1.2-.4v1.5zm-8-5.1c.1-.8.3-1.3.8-1.7.4-.4 1-.6 1.6-.6s1.2.2 1.5.6c.4.4.6 1 .6 1.8l-4.5-.1zm6.4 1.4v-.6c0-1.6-.3-2.7-1-3.5s-1.7-1.1-2.9-1.1c-.7 0-1.3.1-1.8.3-.5.2-1 .5-1.4 1-.4.4-.7.9-.9 1.5s-.3 1.2-.3 1.9.1 1.4.3 2 .5 1.1 1 1.5c.4.4.9.7 1.5.9s1.3.3 2 .3c1.1 0 2.1-.2 2.9-.6l-.1-1.7c-.4.2-.8.4-1.2.5s-.9.2-1.4.2c-.9 0-1.6-.2-2.1-.7s-.8-1.1-.9-1.9h6.3zM9.5.3v5.8h-3V.3H0v17.1h6.5V11h3v6.4h6.4V.3zm18.4 0h12.8v4.4h-6.3v1.8h5.9v4.4h-5.9V13h6.5v4.4h-13zm33.6 10.2h-3L60 3.7l1.5 6.8zm-11.2 7h6.5l.6-2.7h5l.6 2.7h7.1L64.7.3H56l-5.7 17.2zM85.9 7.3V4.1h.7c1.5 0 2.1.5 2.1 1.5 0 1.1-.8 1.8-2.4 1.8-.1 0-.2 0-.4-.1m-6.4 10.1H86v-6.2h.6c1.6 0 1.8.7 2 2.6l.2 1.3c.1.8.3 1.6.5 2.4h6.6c-.3-1.3-.5-2.3-.6-3.1l-.2-1.8c-.3-2.5-.9-3.5-3.2-3.9 2.2-.6 3.4-1.9 3.4-4 0-3.4-2.2-4.4-6.9-4.4h-8.8c-.1 0-.1 17.1-.1 17.1zm31.9-5.5v.1c0 1.2.5 1.7 1.6 1.7 1 0 1.6-.5 1.6-1.2 0-.6-.2-1-.7-1.2-.9-.4-2.4-.7-4.5-1.3-2.8-.9-4.1-2.2-4.1-4.6C105.3 2 108 0 113 0c4.5 0 7 1.7 7 4.7v.4h-5.7c-.1-1-.5-1.5-1.5-1.5-.9 0-1.4.5-1.4 1.1 0 1.2 1.2 1.2 3.4 1.7 4 1.1 5.9 2.2 5.9 5.3 0 3.6-2.9 6-7.9 6s-7.7-1.9-7.7-5.2v-.6h6.3zM128.9.3v4.5h4.1v12.6h6.7V4.8h4.1V.3z" style="fill:var(--primary,#000)"/></svg>